<svg width="66" height="66" viewBox="0 0 66 66" fill="none" xmlns="http://www.w3.org/2000/svg">
<path d="M47.5 27.5C47.5 27.5 46.5 11.5 32 11.5C17.5 11.5 16 27.5 16 27.5C16 27.5 2 28.5 2 41.5C2 54.5 16 54.5 16 54.5H33.5M47.5 27.5L51.5 23C51.5 23 54.8521 23 57 23M47.5 27.5L45 30H42.5M57 23C57 21.067 58.567 19.5 60.5 19.5C62.433 19.5 64 21.067 64 23C64 24.933 62.433 26.5 60.5 26.5C58.567 26.5 57 24.933 57 23ZM42.5 30V28.5H24.5V45.5H33.5M42.5 30V37M42.5 43V45.5H33.5M42.5 43V37M42.5 43H50L52.5 46C52.5 46 55.2426 46 57 46M42.5 37H50L52.5 34.5C52.5 34.5 55.2426 34.5 57 34.5M57 34.5C57 32.567 58.567 31 60.5 31C62.433 31 64 32.567 64 34.5C64 36.433 62.433 38 60.5 38C58.567 38 57 36.433 57 34.5ZM57 46C57 44.067 58.567 42.5 60.5 42.5C62.433 42.5 64 44.067 64 46C64 47.933 62.433 49.5 60.5 49.5C58.567 49.5 57 47.933 57 46ZM33.5 45.5V54.5M33.5 54.5H42.5C43.8249 54.3612 44.4631 53.9786 45.5 53" stroke="#1778d1" stroke-width="3" stroke-linecap="round" stroke-linejoin="round"/>
</svg>
