<?xml version="1.0" encoding="UTF-8"?>
<svg xmlns="http://www.w3.org/2000/svg" width="1333" height="252" viewBox="0 0 1333 252" fill="none">
    <path d="M475.75 215.363H339.047V251.995H475.75V215.363Z" fill="#2AB573"></path>
    <path d="M553.05 69.7105V99.9423H529.909V215.354H493.097V99.9423H477.316V69.7105H493.097V61.5553C493.097 44.0357 497.743 31.2351 507.034 23.1684C516.326 15.1017 530.956 11.0757 550.941 11.0757V42.1038C543.227 42.1038 537.8 43.5932 534.644 46.5722C531.487 49.5511 529.909 54.5504 529.909 61.5553V69.7105H553.05Z" fill="#2AB573"></path>
    <path d="M650.328 173.956C658.041 166.332 661.891 155.861 661.891 142.545C661.891 129.228 658.027 118.758 650.328 111.133C642.614 103.509 633.588 99.6894 623.25 99.6894C612.911 99.6894 603.929 103.465 596.304 111C588.679 118.536 584.859 128.963 584.859 142.294C584.859 155.625 588.709 166.125 596.437 173.838C604.15 181.551 613.132 185.415 623.382 185.415C633.633 185.415 642.614 181.595 650.328 173.971M566.852 196.313C553.785 182.2 547.266 164.194 547.266 142.279C547.266 120.365 553.755 102.447 566.719 88.511C579.683 74.5749 596.172 67.6143 616.156 67.6143C636.14 67.6143 651.39 75.8579 661.905 92.3305V69.7231H698.717V215.366H661.905V190.916C650.859 208.627 635.52 217.475 615.89 217.475C596.26 217.475 579.904 210.426 566.852 196.313Z" fill="#2AB573"></path>
    <path d="M708.942 112.298C708.942 99.6747 714.281 89.0714 724.989 80.4886C735.681 71.9057 749.884 67.6143 767.582 67.6143C785.28 67.6143 799.483 71.8615 810.176 80.3706C820.868 88.8797 826.561 100.397 827.269 114.938H789.41C788.363 102.668 780.826 96.5335 766.8 96.5335C759.78 96.5335 754.353 97.9345 750.503 100.736C746.654 103.538 744.722 107.402 744.722 112.298C744.722 117.194 747.613 121.058 753.394 123.86C759.175 126.662 766.181 128.859 774.425 130.437C782.67 132.015 790.855 133.991 799.011 136.351C807.167 138.71 814.128 142.928 819.91 148.975C825.691 155.021 828.582 163.043 828.582 173.027C828.582 186.167 823.007 196.873 811.886 205.102C800.751 213.346 786.549 217.46 769.293 217.46C752.037 217.46 737.879 213.39 726.832 205.235C715.786 197.08 709.739 185.385 708.692 170.137H746.551C747.952 182.406 755.754 188.541 769.957 188.541C776.8 188.541 782.316 187.008 786.519 183.94C790.722 180.873 792.831 176.847 792.831 171.847C792.831 166.848 789.941 162.911 784.159 160.02C778.378 157.13 771.358 154.888 763.128 153.31C754.884 151.732 746.698 149.8 738.542 147.529C730.387 145.258 723.425 141.173 717.644 135.304C711.862 129.434 708.972 121.766 708.972 112.298" fill="#2AB573"></path>
    <path d="M876.16 20.811V91.5385C885.452 75.5968 900.525 67.6186 921.379 67.6186C938.03 67.6186 951.613 73.1046 962.129 84.047C972.645 95.0041 977.91 110.208 977.91 129.66V215.371H941.098V134.925C941.098 123.525 938.207 114.81 932.426 108.763C926.644 102.717 918.754 99.6937 908.769 99.6937C898.784 99.6937 890.85 102.717 884.98 108.763C879.11 114.81 876.175 123.525 876.175 134.925V215.371H839.098V20.811H876.175H876.16Z" fill="#2AB573"></path>
    <path d="M989.757 69.7113H1026.83V215.355H989.757V69.7113ZM1030.77 32.6368C1030.77 38.9486 1028.57 44.3019 1024.19 48.6818C1019.81 53.0617 1014.5 55.259 1008.28 55.259C1002.06 55.259 996.747 53.0765 992.367 48.6818C987.987 44.3019 985.789 38.9486 985.789 32.6368C985.789 26.325 987.972 20.9866 992.367 16.5919C996.762 12.1972 1002.06 10.0146 1008.28 10.0146C1014.5 10.0146 1019.8 12.212 1024.19 16.5919C1028.57 20.9718 1030.77 26.325 1030.77 32.6368Z" fill="#2AB573"></path>
    <path d="M1109.92 186.179C1120.26 186.179 1129.15 182.374 1136.6 174.75C1144.04 167.126 1147.78 156.346 1147.78 142.409C1147.78 128.473 1144.09 117.737 1136.73 110.202C1129.37 102.666 1120.46 98.8905 1110.03 98.8905C1099.61 98.8905 1090.8 102.666 1083.61 110.202C1076.41 117.737 1072.82 128.518 1072.82 142.542C1072.82 156.567 1076.41 167.347 1083.61 174.883C1090.79 182.419 1099.55 186.194 1109.9 186.194M1056.53 196.709C1042.32 182.861 1035.23 164.722 1035.23 142.291C1035.23 119.861 1042.41 101.81 1056.79 88.1398C1071.16 74.4692 1089 67.6265 1110.3 67.6265C1131.6 67.6265 1149.43 74.4692 1163.81 88.1398C1178.17 101.81 1185.37 119.861 1185.37 142.291C1185.37 164.722 1178.14 182.876 1163.68 196.709C1149.21 210.556 1131.29 217.473 1109.9 217.473C1088.52 217.473 1070.73 210.556 1056.53 196.709Z" fill="#2AB573"></path>
    <path d="M1230.85 69.7084V91.5342C1240.14 75.5925 1255.22 67.6143 1276.07 67.6143C1292.72 67.6143 1306.3 73.1002 1316.82 84.0426C1327.33 94.9998 1332.6 110.204 1332.6 129.656V215.366H1295.79V134.92C1295.79 123.521 1292.9 114.805 1287.12 108.759C1281.33 102.713 1273.44 99.6894 1263.44 99.6894C1253.45 99.6894 1245.53 102.713 1239.66 108.759C1233.79 114.805 1230.85 123.521 1230.85 134.92V215.366H1193.77V69.7084H1230.85Z" fill="#2AB573"></path>
    <path d="M290.508 104.144C283.812 98.2598 275.745 95.3104 266.291 95.3104C256.837 95.3104 248.932 98.2598 242.605 104.144C236.278 110.028 232.473 117.888 231.234 127.695H301.348C300.817 117.888 297.204 110.028 290.508 104.144ZM265.76 215.987C244.168 215.987 226.603 208.982 213.049 194.987C199.495 180.992 192.711 162.484 192.711 139.463C192.711 116.443 199.54 98.0386 213.182 84.2057C226.824 70.3876 244.493 63.4712 266.173 63.4712C287.853 63.4712 305.64 70.2107 319.562 83.6748C333.47 97.1538 340.431 115.116 340.431 137.591C340.431 142.767 340.077 147.574 339.355 152.043H231.249C232.134 161.673 235.703 169.43 241.956 175.314C248.195 181.198 256.144 184.147 265.775 184.147C278.798 184.147 288.428 178.794 294.682 168.088H335.358C331.081 182.186 322.778 193.689 310.477 202.611C298.162 211.533 283.266 215.987 265.79 215.987" fill="#2AB573"></path>
    <path d="M86.8388 116.215C80.733 113.649 74.8336 107.219 78.3142 100.436C80.1135 96.9258 83.5352 94.9202 86.8683 95.0676H86.9421C100.525 95.0676 109.36 115.094 109.36 115.094C102.28 117.97 94.095 119.268 86.8388 116.23M153.281 125.83C153.281 125.83 157.056 123.146 158.885 121.686C176.259 107.78 185.432 89.8176 185.432 69.7319C185.432 48.1715 178.899 30.9173 166.023 18.4559C147.13 0.213666 122.102 -0.0812794 117.855 -0.00754338H0V214.107H36.6056V34.0142H118.577C119.728 34.0142 133.577 34.2502 142.529 43.069C145.552 46.0479 147.809 49.8527 149.269 54.4981C150.685 58.878 151.393 63.9363 151.393 69.7172C151.393 71.3541 151.26 72.9321 150.98 74.4363C150.006 82.4588 146.231 91.484 135.73 99.2116C136.069 98.9609 124.403 86.5142 123.223 85.4082C118.43 80.9251 113.165 76.8548 107.295 73.8759C88.0482 64.0985 62.8284 67.7706 53.2714 88.918C47.4605 101.792 47.3572 116.834 57.1207 127.806C69.0669 141.212 87.7532 143.955 104.773 143.202C106.395 143.129 122.427 140.725 122.043 140.135L169.194 214.417H209.472L153.251 125.816L153.281 125.83Z" fill="#2AB573"></path>
</svg>
